<svg width="30" height="31" viewBox="0 0 30 31" fill="none" xmlns="http://www.w3.org/2000/svg">
<rect y="0.5" width="30" height="30" rx="10" fill="#FB7C7C"/>
<path d="M21.0466 10.9867C19.9733 10.88 18.8999 10.8 17.8199 10.74V10.7333L17.6733 9.86668C17.5733 9.25334 17.4266 8.33334 15.8666 8.33334H14.1199C12.5666 8.33334 12.4199 9.21334 12.3133 9.86001L12.1733 10.7133C11.5533 10.7533 10.9333 10.7933 10.3133 10.8533L8.95328 10.9867C8.67328 11.0133 8.47328 11.26 8.49994 11.5333C8.52661 11.8067 8.76661 12.0067 9.04661 11.98L10.4066 11.8467C13.8999 11.5 17.4199 11.6333 20.9533 11.9867C20.9733 11.9867 20.9866 11.9867 21.0066 11.9867C21.2599 11.9867 21.4799 11.7933 21.5066 11.5333C21.5266 11.26 21.3266 11.0133 21.0466 10.9867Z" fill="white"/>
<path d="M19.8202 12.9267C19.6602 12.76 19.4402 12.6667 19.2135 12.6667H10.7868C10.5602 12.6667 10.3335 12.76 10.1802 12.9267C10.0268 13.0933 9.94016 13.32 9.95349 13.5533L10.3668 20.3933C10.4402 21.4067 10.5335 22.6733 12.8602 22.6733H17.1402C19.4668 22.6733 19.5602 21.4133 19.6335 20.3933L20.0468 13.56C20.0602 13.32 19.9735 13.0933 19.8202 12.9267ZM16.1068 19.3333H13.8868C13.6135 19.3333 13.3868 19.1067 13.3868 18.8333C13.3868 18.56 13.6135 18.3333 13.8868 18.3333H16.1068C16.3802 18.3333 16.6068 18.56 16.6068 18.8333C16.6068 19.1067 16.3802 19.3333 16.1068 19.3333ZM16.6668 16.6667H13.3335C13.0602 16.6667 12.8335 16.44 12.8335 16.1667C12.8335 15.8933 13.0602 15.6667 13.3335 15.6667H16.6668C16.9402 15.6667 17.1668 15.8933 17.1668 16.1667C17.1668 16.44 16.9402 16.6667 16.6668 16.6667Z" fill="white"/>
</svg>
