<svg width="30" height="31" viewBox="0 0 30 31" fill="none" xmlns="http://www.w3.org/2000/svg">
<rect y="0.5" width="30" height="30" rx="10" fill="#545878"/>
<path d="M21 22.1667H9C8.72667 22.1667 8.5 21.94 8.5 21.6667C8.5 21.3933 8.72667 21.1667 9 21.1667H21C21.2733 21.1667 21.5 21.3933 21.5 21.6667C21.5 21.94 21.2733 22.1667 21 22.1667Z" fill="white"/>
<path d="M19.6799 9.82C18.3866 8.52667 17.1199 8.49334 15.7932 9.82L14.9866 10.6267C14.9199 10.6933 14.8932 10.8 14.9199 10.8933C15.4266 12.66 16.8399 14.0733 18.6066 14.58C18.6332 14.5867 18.6599 14.5933 18.6866 14.5933C18.7599 14.5933 18.8266 14.5667 18.8799 14.5133L19.6799 13.7067C20.3399 13.0533 20.6599 12.42 20.6599 11.78C20.6666 11.12 20.3466 10.48 19.6799 9.82Z" fill="white"/>
<path d="M17.4066 15.1867C17.2132 15.0933 17.0266 15 16.8466 14.8933C16.6999 14.8067 16.5599 14.7133 16.4199 14.6133C16.3066 14.54 16.1732 14.4333 16.0466 14.3267C16.0332 14.32 15.9866 14.28 15.9332 14.2267C15.7132 14.04 15.4666 13.8 15.2466 13.5333C15.2266 13.52 15.1932 13.4733 15.1466 13.4133C15.0799 13.3333 14.9666 13.2 14.8666 13.0467C14.7866 12.9467 14.6932 12.8 14.6066 12.6533C14.4999 12.4733 14.4066 12.2933 14.3132 12.1067C14.1908 11.8444 13.8467 11.7665 13.6421 11.9712L9.89322 15.72C9.80655 15.8067 9.72655 15.9733 9.70655 16.0867L9.34655 18.64C9.27989 19.0933 9.40655 19.52 9.68655 19.8067C9.92655 20.04 10.2599 20.1667 10.6199 20.1667C10.6999 20.1667 10.7799 20.16 10.8599 20.1467L13.4199 19.7867C13.5399 19.7667 13.7066 19.6867 13.7866 19.6L17.5416 15.845C17.7421 15.6444 17.6668 15.2994 17.4066 15.1867Z" fill="white"/>
</svg>
